<?xml version="1.0" encoding="UTF-8"?>
<svg version="1.1" xmlns="http://www.w3.org/2000/svg" width="512" height="512">
<path d="M0 0 C1.87958316 1.58986737 3.71666102 3.23068186 5.52026367 4.90625 C6.29805695 5.62838684 6.29805695 5.62838684 7.09156322 6.3651123 C13.08602282 11.96179296 18.92201439 17.71929694 24.73828125 23.5 C25.3142977 24.07194092 25.89031414 24.64388184 26.48378563 25.2331543 C29.52275684 28.25150645 32.55861441 31.2729511 35.59204102 34.296875 C38.69435437 37.38806968 41.80819792 40.46738041 44.92464924 43.54431152 C47.35166377 45.94502919 49.76960498 48.35473643 52.1852932 50.7668457 C53.32880834 51.90554251 54.47565045 53.04090984 55.62609291 54.17260742 C64.12766196 62.54399069 72.29848329 71.22214442 75.375 83.0625 C75.67148438 84.14660156 75.96796875 85.23070312 76.2734375 86.34765625 C77 90 77 90 76.890625 92.22021484 C76.76892649 97.63253865 78.04175708 100.55633277 81.80245972 104.52455139 C84.55977772 107.24894011 87.38722699 109.8870575 90.25 112.5 C108.09230075 128.98554766 108.09230075 128.98554766 109.23828125 141.62890625 C109.48477372 151.37184539 107.83015572 159.14737948 101.3125 166.625 C99.56388749 168.44659299 97.80031139 170.23096498 96 172 C93.84472505 174.12101404 91.68989159 176.24238651 89.53979492 178.36865234 C88.04497833 179.841634 86.54156222 181.3059536 85.02856445 182.76025391 C79.41862828 188.24783107 74.06101747 194.00862563 72.6875 202 C72.47673828 203.1446875 72.47673828 203.1446875 72.26171875 204.3125 C72.17535156 204.869375 72.08898437 205.42625 72 206 C85.72963024 216.77864855 85.72963024 216.77864855 102 221 C108.31493869 219.30175951 112.3805613 214.91254647 116.7734375 210.30078125 C119.41070935 207.57560034 122.22582233 205.14142506 125.109375 202.68359375 C126.97824884 201.01936932 128.66519368 199.26315768 130.375 197.4375 C139.24530803 188.46639302 151.12953646 184.20973981 163.5625 183.75 C177.26149763 183.95569066 188.58169969 188.70087639 198.55737305 197.95117188 C199.07457004 198.43070061 199.59176702 198.91022934 200.12463665 199.40428925 C206.0353506 204.9149772 211.78794849 210.58542621 217.51953125 216.28125 C218.08451513 216.84215836 218.64949902 217.40306671 219.23160362 217.98097229 C222.2122175 220.94097235 225.1897213 223.90406095 228.16479492 226.86962891 C231.20657599 229.90029071 234.25988456 232.91906428 237.31580067 235.93546295 C239.69649473 238.28985492 242.06810964 240.65324065 244.4374752 243.01902771 C245.55866112 244.13539685 246.68317243 245.24843808 247.81128883 246.35780334 C256.09275073 254.50989219 264.09083137 263.05060477 267.375 274.5 C267.67148437 275.4796875 267.96796875 276.459375 268.2734375 277.46875 C269 281 269 281 268.890625 283.41381836 C268.77510311 289.13266749 269.81960364 292.38446953 273.80245972 296.62136841 C276.55411724 299.3416183 279.38197024 301.96574894 282.25 304.5625 C300.41642396 321.26880462 300.41642396 321.26880462 301.203125 333.0390625 C301.40069174 348.15291785 297.09620836 355.7798201 286.72387695 366.55078125 C285.15086 368.14348653 283.57207357 369.73050938 281.98828125 371.3125 C281.13880417 372.16626221 280.28932709 373.02002441 279.41410828 373.8996582 C277.62569795 375.69377817 275.83470649 377.4853286 274.04125977 379.27441406 C271.32876412 381.9837548 268.62986146 384.70613934 265.93164062 387.4296875 C246.74971287 406.68381589 227.71796946 421.21713225 199.5 421.5 C172.48999326 421.20506174 152.40400153 406.25430326 131.26904297 391.03320312 C126.51030997 387.62056591 121.99938664 384.82534168 116.625 382.5 C103.80432891 376.74885189 92.45481005 369.05770794 81 361 C80.42556152 360.59942383 79.85112305 360.19884766 79.25927734 359.78613281 C53.42634878 341.77096385 28.74505775 321.95853566 5.66918945 300.52563477 C4.42858691 299.3917273 3.17500682 298.2719853 1.91479492 297.15991211 C-5.09325945 290.95736475 -11.72932825 284.42379219 -18.33276367 277.79760742 C-20.19142108 275.93356756 -22.05539614 274.07496488 -23.91992188 272.21679688 C-29.82831592 266.31170334 -35.59123973 260.37176706 -41 254 C-42.61967817 252.22429779 -44.24411718 250.45291693 -45.875 248.6875 C-49.96757435 244.19986568 -53.85270834 239.59069772 -57.6640625 234.86328125 C-59.71742452 232.3463676 -61.81483638 229.87518043 -63.93530273 227.41479492 C-70.12236538 220.21648041 -75.85848169 212.73348008 -81.47167969 205.08154297 C-82.95555168 203.06053777 -84.45010556 201.04778218 -85.9453125 199.03515625 C-92.53243394 190.10462162 -98.83536547 180.97572777 -105.04443359 171.77960205 C-105.91525951 170.49217781 -106.78948172 169.20704274 -107.66748047 167.92449951 C-123.933664 144.12195415 -131.39539007 118.88569682 -126 90 C-121.8005477 70.72878458 -111.71380342 55.20062958 -97.58984375 41.6171875 C-95.64717496 39.65400788 -93.8653715 37.70046422 -92.078125 35.60546875 C-86.88884895 29.6240384 -81.3118646 24.01415561 -75.7409668 18.39086914 C-74.45883444 17.09218058 -73.18208946 15.78815043 -71.91088867 14.47875977 C-52.15921716 -5.85992357 -26.41438784 -16.87583834 0 0 Z M-46 35.671875 C-46.9590625 36.63374725 -46.9590625 36.63374725 -47.9375 37.61505127 C-49.28218116 38.96642136 -50.62327673 40.32136787 -51.9609375 41.6796875 C-53.98712487 43.73692755 -56.02368509 45.78340619 -58.0625 47.828125 C-59.37562224 49.15042403 -60.688142 50.4733217 -62 51.796875 C-62.598125 52.39924988 -63.19625 53.00162476 -63.8125 53.62225342 C-67.51117772 57.38246396 -71.0338368 61.25837505 -74.47642517 65.2545166 C-76.43029167 67.49296362 -78.50205006 69.60986415 -80.5625 71.75 C-89.97123845 82.20059194 -94.60475985 95.3586204 -94.4375 109.3125 C-94.42775146 110.23111816 -94.41800293 111.14973633 -94.40795898 112.09619141 C-93.87765023 132.52835851 -81.30586593 147.90669064 -70 164 C-69.25621094 165.06605469 -68.51242188 166.13210938 -67.74609375 167.23046875 C-66.1684732 169.49013131 -64.58693618 171.7468756 -63 174 C-62.032084 170.79069327 -61.93277754 168.00985711 -62.04296875 164.66796875 C-62.68530097 137.43223746 -55.51349984 119.52285161 -36.84359741 99.71179199 C-31.81507936 94.46328489 -26.7089113 89.29413478 -21.57470703 84.14916992 C-18.86121926 81.4236582 -16.16699202 78.67997687 -13.47265625 75.93554688 C-11.73031529 74.18375266 -9.98686441 72.43306152 -8.2421875 70.68359375 C-7.4481955 69.87006943 -6.65420349 69.0565451 -5.83615112 68.21836853 C-0.96899862 63.38990222 3.50007928 60.2527387 10 58 C8.13323754 53.95576495 5.45069736 51.1446417 2.328125 48.02734375 C1.76808777 47.46302139 1.20805054 46.89869904 0.63104248 46.317276 C-0.55331587 45.12718542 -1.74028936 43.93969242 -2.9296875 42.75463867 C-4.73850681 40.94897315 -6.53361405 39.13041933 -8.328125 37.31054688 C-9.48356308 36.15283494 -10.63978806 34.99590772 -11.796875 33.83984375 C-12.32835144 33.29915756 -12.85982788 32.75847137 -13.40740967 32.20140076 C-18.28316396 27.38477462 -22.71998935 24.72866276 -29.77734375 24.50390625 C-36.53654345 26.01255012 -41.32416808 30.89952217 -46 35.671875 Z M148.5625 226.25 C147.42493206 227.42617906 146.28561805 228.60067199 145.14453125 229.7734375 C144.6026416 230.33385742 144.06075195 230.89427734 143.50244141 231.47167969 C140.50581801 234.51991863 137.30231312 237.29128448 134 240 C133.27296875 240.60457031 132.5459375 241.20914063 131.796875 241.83203125 C121.26589378 250.33920145 110.39991489 253.44187036 97 255 C100.40040196 259.31516687 103.95277586 262.8856808 108.3125 266.25 C109.21730103 266.95008179 109.21730103 266.95008179 110.14038086 267.66430664 C128.54427265 281.67149434 128.54427265 281.67149434 150.6875 286.0625 C164.1515162 284.00306895 173.12603492 274.25675202 182.07421875 264.76171875 C188.52334189 257.96385284 194.16991795 253.56960764 203 250 C198.15038002 244.14616578 192.93791125 238.68671956 187.58740234 233.29223633 C186.61154124 232.30480825 185.64017562 231.31291726 184.67333984 230.31665039 C175.97327483 221.13968489 175.97327483 221.13968489 164.4375 216.5625 C157.38822048 217.8277553 153.30065316 221.179168 148.5625 226.25 Z " fill="#405060" transform="translate(159,91)"/>
<path d="M0 0 C1.73067215 -0.00503792 1.73067215 -0.00503792 3.49630737 -0.01017761 C7.30126022 -0.01965721 11.1061689 -0.02162928 14.91113281 -0.02270508 C16.89390805 -0.02510679 18.87668329 -0.02751039 20.85945821 -0.03016549 C27.09218111 -0.0382915 33.32488959 -0.04075147 39.55761719 -0.04003906 C45.96219943 -0.0394391 52.36669722 -0.04997887 58.77125812 -0.06578273 C64.29085009 -0.07891169 69.81041465 -0.0842207 75.3300221 -0.08358365 C78.61727366 -0.08333018 81.90443382 -0.08703465 85.19167328 -0.0967617 C88.86483161 -0.10661245 92.53777535 -0.1036633 96.2109375 -0.09765625 C97.28248077 -0.10327576 98.35402405 -0.10889526 99.45803833 -0.11468506 C114.55773279 -0.05226733 127.70056411 3.29769525 138.86425781 13.95776367 C149.50199151 25.50380961 152.90316139 36.77246485 152.55175781 52.27026367 C152.53822266 53.4175293 152.5246875 54.56479492 152.51074219 55.74682617 C152.47574235 58.54681326 152.4266464 61.34577584 152.36425781 64.14526367 C152.94288574 64.18772217 153.52151367 64.23018066 154.11767578 64.27392578 C163.11420531 65.07768513 171.04439989 68.20923372 177.36425781 74.89526367 C184.89019142 85.00631541 184.96143555 95.17985261 184.89550781 107.30541992 C184.89820768 109.06318882 184.90209421 110.82095626 184.90710449 112.57872009 C184.91297474 116.24761289 184.90451598 119.91611397 184.88574219 123.58496094 C184.86293703 128.26765348 184.8761011 132.94942955 184.90003204 137.63208866 C184.9145429 141.25685937 184.90986021 144.8814157 184.89952087 148.50619316 C184.89686905 150.23202055 184.90006848 151.95786796 184.90943909 153.68367195 C184.96161182 165.98862101 183.95602213 175.04073329 175.29003906 184.35620117 C168.48964564 190.67380804 161.28885304 193.41736776 151.99707031 193.34057617 C151.3174826 193.33774628 150.6378949 193.33491638 149.93771362 193.33200073 C147.78804174 193.32089332 145.63880168 193.29580758 143.48925781 193.27026367 C142.02311804 193.26022162 140.55697167 193.25109792 139.09082031 193.24291992 C135.5151615 193.22098526 131.93975187 193.18652181 128.36425781 193.14526367 C128.09258789 194.01618652 127.82091797 194.88710937 127.54101562 195.78442383 C125.61059249 201.29774435 122.80893102 206.34793791 120.11425781 211.52026367 C119.55351562 212.61854492 118.99277344 213.71682617 118.41503906 214.84838867 C110.30390484 230.47121995 110.30390484 230.47121995 103.36425781 235.14526367 C98.58758044 236.40944294 94.37699705 236.41532747 89.61425781 235.14526367 C81.41256566 230.0980685 77.70582925 221.65619938 73.48925781 213.33276367 C72.89628906 212.1887207 72.30332031 211.04467773 71.69238281 209.8659668 C67.36425781 201.43410116 67.36425781 201.43410116 67.36425781 199.14526367 C66.70039063 199.42241211 66.03652344 199.69956055 65.35253906 199.98510742 C64.46953125 200.34733398 63.58652344 200.70956055 62.67675781 201.08276367 C61.37158203 201.62223633 61.37158203 201.62223633 60.04003906 202.17260742 C51.20680648 205.3835197 42.94849075 204.67211906 34.36425781 201.14526367 C28.59496141 198.16306698 24.5362251 194.68489607 20.89550781 189.32495117 C19.18779579 186.89407538 17.26215585 184.75131368 15.30175781 182.52026367 C10.76751262 176.93295962 6.36425781 168.51591216 6.36425781 161.14526367 C5.73036133 161.16621094 5.09646484 161.1871582 4.44335938 161.20874023 C-19.22411058 161.8879012 -19.22411058 161.8879012 -28.63574219 157.14526367 C-29.51101563 156.70956055 -30.38628906 156.27385742 -31.28808594 155.82495117 C-43.57189853 149.06423627 -50.45607297 139.42649122 -54.83886719 126.36791992 C-57.05516208 117.40496263 -56.79890666 108.23971468 -56.80371094 99.06713867 C-56.80693291 97.60898813 -56.81029765 96.15083789 -56.813797 94.69268799 C-56.81975587 91.6467616 -56.82164029 88.60086344 -56.82104492 85.55493164 C-56.82094356 81.68781428 -56.83458375 77.82088158 -56.85181713 73.95380783 C-56.86303899 70.94400227 -56.86496102 67.93423991 -56.8644352 64.92441559 C-56.8656005 63.50053523 -56.86993872 62.0766532 -56.87776756 60.65279388 C-56.93584143 48.99947072 -56.89560054 37.19763561 -51.32324219 26.70776367 C-50.74960937 25.59530273 -50.17597656 24.4828418 -49.58496094 23.33666992 C-42.44507389 11.64671457 -31.62454243 4.90943091 -18.63574219 1.14526367 C-12.42025951 -0.00152451 -6.3079616 -0.00264781 0 0 Z M-20.01074219 39.52026367 C-20.49285156 40.08487305 -20.97496094 40.64948242 -21.47167969 41.23120117 C-23.96286334 45.32744275 -23.76881507 49.97096028 -23.796875 54.64453125 C-23.80648254 55.93970169 -23.81609009 57.23487213 -23.82598877 58.56929016 C-23.83083748 59.97612328 -23.83511613 61.38295845 -23.83886719 62.78979492 C-23.84169456 63.50337347 -23.84452194 64.21695202 -23.847435 64.95215416 C-23.86239181 68.72852317 -23.87164335 72.50485432 -23.87597656 76.28125 C-23.88145557 80.16474695 -23.90548128 84.0478923 -23.93394852 87.93127918 C-23.95265248 90.93317144 -23.9577846 93.9349803 -23.95931244 96.93692589 C-23.96232209 98.36774301 -23.97029305 99.79855926 -23.98349762 101.22931862 C-24.45557746 113.2853228 -24.45557746 113.2853228 -19.18365479 123.68782043 C-15.38866239 126.97505191 -12.98827706 128.27407718 -8.06542969 128.24291992 C-6.72158203 128.23808594 -6.72158203 128.23808594 -5.35058594 128.2331543 C-4.4134375 128.22477539 -3.47628906 128.21639648 -2.51074219 128.20776367 C-1.09341797 128.20099609 -1.09341797 128.20099609 0.35253906 128.1940918 C2.68984168 128.18228724 5.02701843 128.16582126 7.36425781 128.14526367 C7.38931396 127.18749023 7.41437012 126.2297168 7.44018555 125.24291992 C7.53503754 121.65703123 7.63506154 118.07130156 7.73657227 114.4855957 C7.7796293 112.93973537 7.82132207 111.39383636 7.86157227 109.84790039 C7.91999084 107.61357006 7.98347048 105.37942923 8.04785156 103.14526367 C8.06456406 102.46471924 8.08127655 101.7841748 8.09849548 101.08300781 C8.20315409 97.61936535 8.44823236 94.21881674 8.89819336 90.78588867 C9.27840988 87.81585791 9.38513738 85.98206806 8.73925781 83.14526367 C8.06916205 78.5975471 9.02379143 75.08532938 11.36425781 71.14526367 C14.78822434 67.28134613 18.25298505 65.35855611 23.38695145 65.00659847 C24.10594997 65.00014592 24.8249485 64.99369337 25.56573486 64.98704529 C26.81086349 64.97236206 26.81086349 64.97236206 28.08114624 64.9573822 C28.98313751 64.95162674 29.88512878 64.94587128 30.81445312 64.93994141 C31.77088715 64.93004181 32.72732117 64.92014221 33.71273804 64.90994263 C36.87259449 64.87836717 40.03246597 64.85358575 43.19238281 64.82885742 C45.38385406 64.80828449 47.57532137 64.78728792 49.76678467 64.7658844 C55.53382172 64.71069883 61.30089437 64.661274 67.06799316 64.61303711 C72.9532386 64.56279647 78.83843236 64.50712377 84.72363281 64.4519043 C96.27046366 64.34436568 107.81733938 64.24291112 119.36425781 64.14526367 C119.48124039 60.93724134 119.55176388 57.72977342 119.61425781 54.52026367 C119.66453125 53.16481445 119.66453125 53.16481445 119.71582031 51.78198242 C119.79998295 46.0168415 119.2676432 42.69683897 115.36425781 38.14526367 C110.84059495 33.96087552 107.56543017 33.02613998 101.52653503 33.00482178 C100.55511063 32.99911163 99.58368622 32.99340149 98.58282471 32.98751831 C96.99386383 32.98584152 96.99386383 32.98584152 95.37280273 32.98413086 C94.25204849 32.97916595 93.13129425 32.97420105 91.97657776 32.96908569 C88.26595447 32.95447107 84.55537392 32.94766334 80.84472656 32.94213867 C78.26646422 32.93638683 75.68820189 32.9306291 73.10993958 32.92486572 C68.39323552 32.91570076 63.67654856 32.90939952 58.95983714 32.90636897 C52.02822929 32.90189021 45.09681883 32.88434742 38.16527098 32.85536838 C32.15208661 32.83110566 26.13899529 32.82342266 20.12575722 32.82169342 C17.57210528 32.81866723 15.01845418 32.81063989 12.46483421 32.79750824 C8.89103643 32.78044172 5.31771856 32.78232977 1.74389648 32.78881836 C0.69066193 32.77960358 -0.36257263 32.77038879 -1.44772339 32.76089478 C-8.74130923 32.80234774 -15.09271471 33.5153793 -20.01074219 39.52026367 Z " fill="#405060" transform="translate(327.6357421875,30.854736328125)"/>
<path d="M0 0 C0.7645752 0.69722168 1.52915039 1.39444336 2.31689453 2.11279297 C3.27611816 2.98661621 4.2353418 3.86043945 5.22363281 4.76074219 C6.28354337 5.80756304 7.33781019 6.86012029 8.38720703 7.91748047 C9.23156815 8.75897141 9.23156815 8.75897141 10.09298706 9.61746216 C11.27701568 10.80013505 12.45854347 11.98531636 13.63769531 13.17285156 C15.43613784 14.982002 17.24499753 16.78023735 19.05517578 18.57763672 C20.20816131 19.73194395 21.36052623 20.88687148 22.51220703 22.04248047 C23.04975616 22.57598114 23.5873053 23.10948181 24.1411438 23.65914917 C28.67497552 28.24967304 31.74494867 31.89458376 31.75439453 38.48779297 C31.77373047 39.38240234 31.79306641 40.27701172 31.81298828 41.19873047 C30.70176986 47.72604498 26.61627877 52.16122217 21.92236328 56.55419922 C20.87295171 57.56075274 19.82414315 58.56793526 18.77587891 59.57568359 C17.15083997 61.12089435 15.52096695 62.65987567 13.87915039 64.18725586 C3.76247716 73.64164649 -4.4283287 84.03636798 -4.95654297 98.51904297 C-5.56300276 119.86684731 3.5045529 136.25516229 17.31689453 152.11279297 C18.04908203 152.95455078 18.78126953 153.79630859 19.53564453 154.66357422 C21.76403402 157.17814386 24.03040518 159.65104686 26.31689453 162.11279297 C26.90599609 162.76763672 27.49509766 163.42248047 28.10205078 164.09716797 C37.13157642 173.70220184 48.30685019 181.26227074 59.75439453 187.67529297 C60.83503174 188.2831665 60.83503174 188.2831665 61.9375 188.90332031 C68.04829153 192.21210406 74.26802628 194.39711126 81.02783203 195.98388672 C85.01191782 197.35134609 86.9761671 199.20538845 89.94189453 202.17529297 C95.94127855 207.96504159 102.28399524 212.60015783 109.31689453 217.11279297 C110.34041016 217.77537109 111.36392578 218.43794922 112.41845703 219.12060547 C122.29432963 225.21965857 131.68865207 228.77795219 143.31689453 226.11279297 C154.0404009 222.75423851 161.89395338 213.70593155 169.49658203 205.83935547 C181.79964784 193.12909599 181.79964784 193.12909599 189.53955078 191.70336914 C193.74380259 192.32314149 195.94284412 195.06369731 198.78955078 197.99169922 C199.39447861 198.59658676 199.99940643 199.2014743 200.62266541 199.82469177 C201.90018908 201.10757449 203.17159259 202.39657674 204.43725586 203.69116211 C206.36210092 205.65762544 208.30714866 207.60214053 210.25634766 209.54443359 C211.4978476 210.79643511 212.73812227 212.04965305 213.97705078 213.30419922 C214.55318619 213.88053604 215.12932159 214.45687286 215.72291565 215.05067444 C220.14095907 219.59791117 223.87825276 224.0971308 224.81689453 230.55029297 C223.4799279 240.0761802 217.23987025 245.77953795 210.68798828 252.27294922 C209.7329836 253.23065609 208.77857272 254.18895541 207.82472229 255.14781189 C205.82976186 257.14864171 203.82782232 259.14213278 201.82055664 261.13061523 C199.2744129 263.65406444 196.74653442 266.19492708 194.22375393 268.7417078 C192.25679313 270.72327624 190.28021329 272.69503121 188.30079842 274.66415215 C186.91817984 276.04287786 185.5434814 277.42953187 184.16905212 278.81642151 C176.48086063 286.39282697 168.25634282 292.56537878 157.94189453 295.98779297 C156.79978516 296.37708984 155.65767578 296.76638672 154.48095703 297.16748047 C139.89000827 301.52675158 124.3084892 299.4028167 110.93798828 292.30029297 C102.07396636 287.10351749 93.72143477 281.00930658 85.31689453 275.11279297 C84.62740723 274.63229492 83.93791992 274.15179688 83.22753906 273.65673828 C59.34900526 257.00435331 36.55207413 238.58707531 15.21142578 218.78857422 C13.36773161 217.08421456 11.51211241 215.39260108 9.64111328 213.71826172 C2.71535569 207.49781466 -3.90446765 200.99763963 -10.49560547 194.42529297 C-11.39142334 193.53406738 -12.28724121 192.6428418 -13.21020508 191.72460938 C-17.68430375 187.24007768 -22.02143024 182.70013313 -26.14770508 177.89331055 C-28.38514742 175.29867436 -30.72289298 172.80731539 -33.05810547 170.30029297 C-37.36778344 165.63462065 -41.45634684 160.83503945 -45.44091797 155.88623047 C-47.79752113 152.97126837 -50.20545457 150.10437394 -52.62060547 147.23779297 C-69.34976145 127.1576104 -77.19809703 113.9398642 -75.68310547 87.11279297 C-72.79425036 61.32884023 -52.0730157 43.11236101 -34.83056641 25.8347168 C-32.04465429 23.03678375 -29.27798681 20.22066962 -26.51123047 17.40380859 C-24.72331662 15.60644129 -22.9342928 13.8101773 -21.14404297 12.01513672 C-20.32817719 11.17973862 -19.5123114 10.34434052 -18.67172241 9.48362732 C-6.8359995 -2.26042058 -6.8359995 -2.26042058 0 0 Z " fill="#99DCFA" transform="translate(171.68310546875,148.88720703125)"/>
<path d="M0 0 C1.43260071 0.13834633 2.86462656 0.28265328 4.29638672 0.42944336 C5.4926619 0.54901649 5.4926619 0.54901649 6.71310425 0.67100525 C13.61983138 1.66461284 20.25632 5.73147159 25 10.75 C32.52593361 20.86105174 32.59717774 31.03458894 32.53125 43.16015625 C32.53394987 44.91792515 32.5378364 46.67569259 32.54284668 48.43345642 C32.54871693 52.10234921 32.54025817 55.7708503 32.52148438 59.43969727 C32.49867922 64.12238981 32.51184329 68.80416587 32.53577423 73.48682499 C32.55028509 77.1115957 32.5456024 80.73615203 32.53526306 84.36092949 C32.53261123 86.08675688 32.53581067 87.81260429 32.54518127 89.53840828 C32.59735401 101.84335734 31.59176432 110.89546962 22.92578125 120.2109375 C16.12538783 126.52854437 8.92459523 129.27210409 -0.3671875 129.1953125 C-1.04677521 129.1924826 -1.72636292 129.18965271 -2.42654419 129.18673706 C-4.57621608 129.17562964 -6.72545614 129.15054391 -8.875 129.125 C-10.34113977 129.11495795 -11.80728614 129.10583425 -13.2734375 129.09765625 C-16.84909631 129.07572159 -20.42450594 129.04125814 -24 129 C-24.27166992 129.87092285 -24.54333984 130.7418457 -24.82324219 131.63916016 C-26.75366533 137.15248068 -29.55532679 142.20267424 -32.25 147.375 C-32.81074219 148.47328125 -33.37148438 149.5715625 -33.94921875 150.703125 C-42.06035297 166.32595627 -42.06035297 166.32595627 -49 171 C-53.77667738 172.26417927 -57.98726076 172.2700638 -62.75 171 C-70.67593126 166.12250384 -74.36114788 158.09686885 -78.43408203 150.04614258 C-79.38433665 148.16905684 -80.34916887 146.30002327 -81.31640625 144.43164062 C-86 135.30522436 -86 135.30522436 -86 133 C-84.5258161 131.80730808 -83.05109899 130.61526458 -81.57275391 129.42773438 C-79.12980536 127.21004374 -77.75552013 124.63324398 -76.1875 121.75 C-75.84605957 121.15807861 -75.50461914 120.56615723 -75.15283203 119.95629883 C-73.19288137 116.49711549 -71.61573642 113.07940137 -70.26171875 109.33984375 C-66.6806846 100.12297364 -66.6806846 100.12297364 -63 97 C-56.81843372 94.96170435 -50.08627556 95.80144659 -43.67626953 96.02587891 C-31.8830751 95.91184145 -21.49685509 89.09513058 -13.16796875 81.28125 C-3.23992559 70.62431254 -0.56479326 56.82258627 -0.48828125 42.7734375 C-0.46135445 40.93019394 -0.46135445 40.93019394 -0.43388367 39.04971313 C-0.38007584 35.15817609 -0.34597906 31.26675963 -0.3125 27.375 C-0.27930096 24.72263958 -0.24480894 22.07029501 -0.20898438 19.41796875 C-0.12436628 12.9454207 -0.0558923 6.47285647 0 0 Z " fill="#99DCFA" transform="translate(480,95)"/>
<path d="M0 0 C5.79190296 4.83959546 11.24270293 9.96021116 16.625 15.25 C17.45773437 16.04535156 18.29046875 16.84070313 19.1484375 17.66015625 C26.98449371 25.38391229 32.10351331 33.41876828 32.25 44.625 C32.07311966 60.27086977 23.64154002 68.67136022 12.98828125 79.3125 C12.13880417 80.16626221 11.28932709 81.02002441 10.41410828 81.8996582 C8.62569795 83.69377817 6.83470649 85.4853286 5.04125977 87.27441406 C2.32876412 89.9837548 -0.37013854 92.70613934 -3.06835938 95.4296875 C-22.25028713 114.68381589 -41.28203054 129.21713225 -69.5 129.5 C-95.55059805 129.2155381 -114.41431553 115.39768509 -135 101 C-136.48016602 99.96552734 -136.48016602 99.96552734 -137.99023438 98.91015625 C-140.32788842 97.27494997 -142.66453505 95.63833061 -145 94 C-141.24130849 92.74710283 -138.61179791 93.59814254 -134.875 94.4375 C-111.33726868 99.21982045 -87.23388739 93.79320209 -67 81 C-59.38248688 75.43137289 -52.63864809 68.99301499 -45.953125 62.359375 C-45.4512542 61.86315895 -44.94938339 61.3669429 -44.43230438 60.85569 C-41.78107394 58.23415436 -39.13542095 55.60714678 -36.49462891 52.97509766 C-33.7962908 50.28774619 -31.0798624 47.61949157 -28.35878372 44.95519638 C-26.23965849 42.87363582 -24.13437625 40.77846879 -22.03243256 38.67957306 C-21.03764667 37.69076156 -20.03795624 36.70685467 -19.0329361 35.72844696 C-10.25197383 27.1638105 -4.71375728 18.12983571 -1.625 6.25 C-1.14933594 4.46335937 -1.14933594 4.46335937 -0.6640625 2.640625 C-0.44492187 1.76921875 -0.22578125 0.8978125 0 0 Z " fill="#99DCFA" transform="translate(428,383)"/>
<path d="M0 0 C0.83849991 -0.00137466 1.67699982 -0.00274933 2.54090881 -0.00416565 C3.45225082 -0.00057037 4.36359283 0.0030249 5.30255127 0.00672913 C6.75183266 0.00651009 6.75183266 0.00651009 8.23039246 0.00628662 C11.42276253 0.00698307 14.6150742 0.01476302 17.80743408 0.02259827 C20.02132129 0.02446339 22.23520891 0.02588685 24.44909668 0.02688599 C30.27536153 0.0307037 36.10160145 0.04052765 41.92785645 0.05158997 C47.87338931 0.0618201 53.8189262 0.06638705 59.76446533 0.07142639 C71.42984087 0.08215055 83.0951979 0.09921806 94.76055908 0.12025452 C94.88772496 7.52159707 94.97506428 14.92265608 95.03521729 22.32484436 C95.06030341 24.84090198 95.09438033 27.35688715 95.13775635 29.87269592 C95.19866408 33.49706438 95.22682929 37.1204662 95.24884033 40.74525452 C95.27464676 41.86327454 95.30045319 42.98129456 95.32704163 44.13319397 C95.32949362 51.01864279 94.46098276 55.89338133 89.76055908 61.12025452 C82.95682075 66.71784627 73.97140753 65.65574211 65.63555908 65.62025452 C62.77812586 65.60814945 59.92252064 65.62200507 57.06524658 65.65150452 C55.80696045 65.6469928 54.54867432 65.64248108 53.2522583 65.63783264 C48.30750267 66.32101242 45.27226674 68.35766955 42.04229736 72.12367249 C38.53599263 77.66945005 35.48623838 83.33706431 32.63555908 89.24525452 C29.8407631 94.98194101 26.99628354 100.61803182 23.76055908 106.12025452 C20.76055908 105.12025452 20.76055908 105.12025452 19.62896729 103.39295959 C19.10049194 102.27763855 19.10049194 102.27763855 18.56134033 101.13978577 C18.16068359 100.31156311 17.76002686 99.48334045 17.347229 98.63002014 C16.92675293 97.73992249 16.50627686 96.84982483 16.07305908 95.93275452 C15.18264604 94.10455734 14.28939456 92.27774 13.39337158 90.45228577 C12.72869873 89.09611145 12.72869873 89.09611145 12.05059814 87.71253967 C10.26866582 84.13181345 8.40179808 80.60985874 6.44805908 77.12025452 C5.85380127 76.04775452 5.25954346 74.97525452 4.64727783 73.87025452 C1.95741883 69.94963188 -0.72241901 67.62592849 -5.23944092 66.12025452 C-8.36430107 65.81539011 -11.48972203 65.61184236 -14.62225342 65.40150452 C-17.23944092 65.12025452 -17.23944092 65.12025452 -18.23944092 64.12025452 C-18.34047771 61.76533476 -18.37914749 59.44045242 -18.37225342 57.08509827 C-18.37368851 56.01697655 -18.37368851 56.01697655 -18.37515259 54.92727661 C-18.37583488 53.41323255 -18.37397718 51.89918558 -18.36981201 50.38514709 C-18.36451926 48.09170231 -18.36972646 45.79845834 -18.37615967 43.50502014 C-18.37549782 42.03171242 -18.37421446 40.55840483 -18.37225342 39.08509827 C-18.37427765 38.40769089 -18.37630188 37.73028351 -18.37838745 37.03234863 C-18.35571162 32.30711903 -17.85211541 27.79393352 -17.23944092 23.12025452 C-17.41230268 20.94012052 -17.41230268 20.94012052 -17.86444092 19.12025452 C-18.5271699 14.55279803 -17.63555167 11.05962304 -15.23944092 7.12025452 C-10.70552081 2.08377941 -6.78971271 -0.00861639 0 0 Z " fill="#99DCFA" transform="translate(353.23944091796875,94.87974548339844)"/>
<path d="M0 0 C5.63985581 2.34520505 9.59954659 7.18921964 13.85375977 11.42822266 C15.41691823 12.97957369 16.99772 14.51124016 18.58007812 16.04296875 C26.94410503 24.27198217 33.00674307 32.47705503 33.3125 44.5625 C33.13758194 56.55896364 28.33212864 63.81262337 20 72 C17.84472505 74.12101404 15.68989159 76.24238651 13.53979492 78.36865234 C12.04497833 79.841634 10.54156222 81.3059536 9.02856445 82.76025391 C3.2719838 88.39127707 -1.48555561 94.16187153 -3.8125 102 C-4.04582031 102.763125 -4.27914062 103.52625 -4.51953125 104.3125 C-4.67808594 104.869375 -4.83664063 105.42625 -5 106 C-18.8892865 97.80888232 -31.15362298 81.45507295 -37.375 66.75 C-38.46678217 61.94615846 -38.676498 58.73790271 -36.12109375 54.44921875 C-31.78659754 47.72324983 -25.60278444 42.51305876 -19.8359375 37.04101562 C-9.27095837 26.78543946 -1.33239723 14.98946885 0 0 Z " fill="#99DCFA" transform="translate(235,191)"/>
<path d="M0 0 C1.0349762 -0.01283524 2.06995239 -0.02567047 3.1362915 -0.03889465 C4.80664459 -0.04997505 4.80664459 -0.04997505 6.51074219 -0.0612793 C7.66249939 -0.06935104 8.81425659 -0.07742279 10.00091553 -0.08573914 C12.43858338 -0.09956585 14.87627048 -0.11029432 17.31396484 -0.11816406 C21.02967275 -0.13536866 24.74448892 -0.17926837 28.45996094 -0.22338867 C30.83104816 -0.23351681 33.20214293 -0.24203254 35.57324219 -0.2487793 C36.67871399 -0.26628738 37.78418579 -0.28379547 38.92315674 -0.30183411 C46.09212779 -0.28181348 52.05822053 0.51249077 57.36114502 5.69535828 C60.90188618 9.8057801 62.18625779 12.48895895 62.07714844 17.9543457 C61.51454442 22.59379042 59.695774 26.41486888 56.26171875 29.61972046 C50.08813947 33.88888601 44.39592373 33.90517257 37.05761719 33.84106445 C35.84493164 33.84584808 34.63224609 33.85063171 33.3828125 33.8555603 C30.82778623 33.85895138 28.27271609 33.84980486 25.71777344 33.82885742 C21.8196485 33.80208459 17.92440316 33.82863653 14.02636719 33.8605957 C11.53677753 33.85729147 9.04718966 33.85088497 6.55761719 33.84106445 C4.8197998 33.85624619 4.8197998 33.85624619 3.046875 33.87173462 C-5.55259602 33.74792894 -10.43862126 31.73826291 -16.62988281 25.86450195 C-19.07348269 21.66151017 -19.66183835 17.8108946 -18.82128906 13.0949707 C-17.15631033 7.68637519 -13.97938747 4.15215109 -9.19238281 1.17700195 C-6.09203764 0.20739706 -3.23890035 0.03509461 0 0 Z " fill="#415262" transform="translate(354.1923828125,94.822998046875)"/>
<path d="M0 0 C2.66648371 3.33105349 4.6669681 6.87197848 6.6875 10.625 C7.31011719 11.77226562 7.93273437 12.91953125 8.57421875 14.1015625 C10 17 10 17 10 19 C9.34 19 8.68 19 8 19 C3.32458304 13.28277817 0 7.49643254 0 0 Z " fill="#95D4F0" transform="translate(336,196)"/>
</svg>
